<?xml version="1.0" encoding="UTF-8" standalone="no"?>
<!DOCTYPE svg PUBLIC "-//W3C//DTD SVG 1.1//EN"
 "http://www.w3.org/Graphics/SVG/1.1/DTD/svg11.dtd">
<!-- Generated by graphviz version 2.40.1 (20161225.0304)
 -->
<!-- Title: dependencies Pages: 1 -->
<svg width="1124pt" height="211pt"
 viewBox="0.00 0.00 1124.00 211.00" xmlns="http://www.w3.org/2000/svg" xmlns:xlink="http://www.w3.org/1999/xlink">
<g id="graph0" class="graph" transform="scale(1 1) rotate(0) translate(4 207)">
<title>dependencies</title>
<polygon fill="#ffffff" stroke="transparent" points="-4,4 -4,-207 1120,-207 1120,4 -4,4"/>
<text text-anchor="start" x="537.0091" y="-42.4" font-family="sans-serif" font-weight="bold" font-size="14.00" fill="#000000">Legend</text>
<polygon fill="#ffffb3" stroke="transparent" points="324,-10 324,-30 344,-30 344,-10 324,-10"/>
<text text-anchor="start" x="347.629" y="-15.4" font-family="sans-serif" font-size="14.00" fill="#000000"> &#160;Declarations</text>
<polygon fill="#8dd3c7" stroke="transparent" points="437,-10 437,-30 457,-30 457,-10 437,-10"/>
<text text-anchor="start" x="460.7251" y="-15.4" font-family="sans-serif" font-size="14.00" fill="#000000"> &#160;Module</text>
<polygon fill="#80b1d3" stroke="transparent" points="523,-10 523,-30 543,-30 543,-10 523,-10"/>
<text text-anchor="start" x="546.7812" y="-15.4" font-family="sans-serif" font-size="14.00" fill="#000000"> &#160;Bootstrap</text>
<polygon fill="#fdb462" stroke="transparent" points="620,-10 620,-30 640,-30 640,-10 620,-10"/>
<text text-anchor="start" x="643.6732" y="-15.4" font-family="sans-serif" font-size="14.00" fill="#000000"> &#160;Providers</text>
<polygon fill="#fb8072" stroke="transparent" points="716,-10 716,-30 736,-30 736,-10 716,-10"/>
<text text-anchor="start" x="739.7258" y="-15.4" font-family="sans-serif" font-size="14.00" fill="#000000"> &#160;Exports</text>
<g id="clust1" class="cluster">
<title>cluster_CrudModule</title>
<polygon fill="none" stroke="#000000" stroke-dasharray="1,5" points="8,-70 8,-195 1108,-195 1108,-70 8,-70"/>
</g>
<g id="clust2" class="cluster">
<title>cluster_CrudModule_declarations</title>
<polygon fill="none" stroke="#000000" points="571,-78 571,-130 1100,-130 1100,-78 571,-78"/>
</g>
<g id="clust7" class="cluster">
<title>cluster_CrudModule_imports</title>
<polygon fill="none" stroke="#000000" points="180,-78 180,-130 563,-130 563,-78 180,-78"/>
</g>
<g id="clust10" class="cluster">
<title>cluster_CrudModule_providers</title>
<polygon fill="none" stroke="#000000" points="16,-78 16,-130 172,-130 172,-78 16,-78"/>
</g>
<!-- ListComponent -->
<g id="node1" class="node">
<title>ListComponent</title>
<polygon fill="#ffffb3" stroke="#000000" points="1091.6109,-122 988.3891,-122 988.3891,-86 1091.6109,-86 1091.6109,-122"/>
<text text-anchor="middle" x="1040" y="-99.8" font-family="Times,serif" font-size="14.00" fill="#000000">ListComponent</text>
</g>
<!-- CrudModule -->
<g id="node5" class="node">
<title>CrudModule</title>
<polygon fill="#8dd3c7" stroke="#000000" points="608.5482,-187 605.5482,-191 584.5482,-191 581.5482,-187 521.4518,-187 521.4518,-151 608.5482,-151 608.5482,-187"/>
<text text-anchor="middle" x="565" y="-164.8" font-family="Times,serif" font-size="14.00" fill="#000000">CrudModule</text>
</g>
<!-- ListComponent&#45;&gt;CrudModule -->
<g id="edge1" class="edge">
<title>ListComponent&#45;&gt;CrudModule</title>
<path fill="none" stroke="#000000" d="M1040,-122.2921C1040,-144.2057 1040,-178 1040,-178 1040,-178 618.8354,-178 618.8354,-178"/>
<polygon fill="#000000" stroke="#000000" points="618.8355,-174.5001 608.8354,-178 618.8354,-181.5001 618.8355,-174.5001"/>
</g>
<!-- FormComponent -->
<g id="node2" class="node">
<title>FormComponent</title>
<polygon fill="#ffffb3" stroke="#000000" points="970.6667,-122 859.3333,-122 859.3333,-86 970.6667,-86 970.6667,-122"/>
<text text-anchor="middle" x="915" y="-99.8" font-family="Times,serif" font-size="14.00" fill="#000000">FormComponent</text>
</g>
<!-- FormComponent&#45;&gt;CrudModule -->
<g id="edge2" class="edge">
<title>FormComponent&#45;&gt;CrudModule</title>
<path fill="none" stroke="#000000" d="M915,-122.1061C915,-141.3391 915,-169 915,-169 915,-169 618.6201,-169 618.6201,-169"/>
<polygon fill="#000000" stroke="#000000" points="618.6201,-165.5001 608.6201,-169 618.62,-172.5001 618.6201,-165.5001"/>
</g>
<!-- SpinnerComponent -->
<g id="node3" class="node">
<title>SpinnerComponent</title>
<polygon fill="#ffffb3" stroke="#000000" points="841.3809,-122 716.6191,-122 716.6191,-86 841.3809,-86 841.3809,-122"/>
<text text-anchor="middle" x="779" y="-99.8" font-family="Times,serif" font-size="14.00" fill="#000000">SpinnerComponent</text>
</g>
<!-- SpinnerComponent&#45;&gt;CrudModule -->
<g id="edge3" class="edge">
<title>SpinnerComponent&#45;&gt;CrudModule</title>
<path fill="none" stroke="#000000" d="M779,-122.027C779,-138.3976 779,-160 779,-160 779,-160 618.564,-160 618.564,-160"/>
<polygon fill="#000000" stroke="#000000" points="618.5641,-156.5001 608.564,-160 618.564,-163.5001 618.5641,-156.5001"/>
</g>
<!-- DialogComponent -->
<g id="node4" class="node">
<title>DialogComponent</title>
<polygon fill="#ffffb3" stroke="#000000" points="698.9356,-122 579.0644,-122 579.0644,-86 698.9356,-86 698.9356,-122"/>
<text text-anchor="middle" x="639" y="-99.8" font-family="Times,serif" font-size="14.00" fill="#000000">DialogComponent</text>
</g>
<!-- DialogComponent&#45;&gt;CrudModule -->
<g id="edge4" class="edge">
<title>DialogComponent&#45;&gt;CrudModule</title>
<path fill="none" stroke="#000000" d="M594.0281,-122.1061C594.0281,-122.1061 594.0281,-140.991 594.0281,-140.991"/>
<polygon fill="#000000" stroke="#000000" points="590.5281,-140.9909 594.0281,-150.991 597.5281,-140.991 590.5281,-140.9909"/>
</g>
<!-- CrudRouterModule -->
<g id="node6" class="node">
<title>CrudRouterModule</title>
<polygon fill="#8dd3c7" stroke="#000000" points="554.6499,-122 551.6499,-126 530.6499,-126 527.6499,-122 429.3501,-122 429.3501,-86 554.6499,-86 554.6499,-122"/>
<text text-anchor="middle" x="492" y="-99.8" font-family="Times,serif" font-size="14.00" fill="#000000">CrudRouterModule</text>
</g>
<!-- CrudRouterModule&#45;&gt;CrudModule -->
<g id="edge5" class="edge">
<title>CrudRouterModule&#45;&gt;CrudModule</title>
<path fill="none" stroke="#000000" d="M538.0256,-122.1061C538.0256,-122.1061 538.0256,-140.991 538.0256,-140.991"/>
<polygon fill="#000000" stroke="#000000" points="534.5257,-140.9909 538.0256,-150.991 541.5257,-140.991 534.5257,-140.9909"/>
</g>
<!-- MaterialExportModule -->
<g id="node7" class="node">
<title>MaterialExportModule</title>
<polygon fill="#8dd3c7" stroke="#000000" points="411.5744,-122 408.5744,-126 387.5744,-126 384.5744,-122 266.4256,-122 266.4256,-86 411.5744,-86 411.5744,-122"/>
<text text-anchor="middle" x="339" y="-99.8" font-family="Times,serif" font-size="14.00" fill="#000000">MaterialExportModule</text>
</g>
<!-- MaterialExportModule&#45;&gt;CrudModule -->
<g id="edge6" class="edge">
<title>MaterialExportModule&#45;&gt;CrudModule</title>
<path fill="none" stroke="#000000" d="M339,-122.027C339,-138.3976 339,-160 339,-160 339,-160 511.4249,-160 511.4249,-160"/>
<polygon fill="#000000" stroke="#000000" points="511.425,-163.5001 521.4249,-160 511.4249,-156.5001 511.425,-163.5001"/>
</g>
<!-- Ng2Rut -->
<g id="node8" class="node">
<title>Ng2Rut</title>
<polygon fill="#8dd3c7" stroke="#000000" points="248.3347,-122 245.3347,-126 224.3347,-126 221.3347,-122 187.6653,-122 187.6653,-86 248.3347,-86 248.3347,-122"/>
<text text-anchor="middle" x="218" y="-99.8" font-family="Times,serif" font-size="14.00" fill="#000000">Ng2Rut</text>
</g>
<!-- Ng2Rut&#45;&gt;CrudModule -->
<g id="edge7" class="edge">
<title>Ng2Rut&#45;&gt;CrudModule</title>
<path fill="none" stroke="#000000" d="M218,-122.1061C218,-141.3391 218,-169 218,-169 218,-169 511.4036,-169 511.4036,-169"/>
<polygon fill="#000000" stroke="#000000" points="511.4036,-172.5001 521.4036,-169 511.4035,-165.5001 511.4036,-172.5001"/>
</g>
<!-- SpinnerService -->
<g id="node9" class="node">
<title>SpinnerService</title>
<ellipse fill="#fdb462" stroke="#000000" cx="94" cy="-104" rx="70.0616" ry="18"/>
<text text-anchor="middle" x="94" y="-99.8" font-family="Times,serif" font-size="14.00" fill="#000000">SpinnerService</text>
</g>
<!-- SpinnerService&#45;&gt;CrudModule -->
<g id="edge8" class="edge">
<title>SpinnerService&#45;&gt;CrudModule</title>
<path fill="none" stroke="#000000" d="M94,-122.2921C94,-144.2057 94,-178 94,-178 94,-178 511.1124,-178 511.1124,-178"/>
<polygon fill="#000000" stroke="#000000" points="511.1125,-181.5001 521.1124,-178 511.1124,-174.5001 511.1125,-181.5001"/>
</g>
</g>
</svg>
